<?xml version="1.0" ?><!DOCTYPE svg  PUBLIC '-//W3C//DTD SVG 1.1//EN'  'http://www.w3.org/Graphics/SVG/1.1/DTD/svg11.dtd'><svg enable-background="new 0 0 512 512" height="512px" id="Layer_1" version="1.1" viewBox="0 0 512 512" width="512px" xml:space="preserve" xmlns="http://www.w3.org/2000/svg" xmlns:xlink="http://www.w3.org/1999/xlink"><g><path fill="#471714" d="M263.133,366.274c0,2.387,0.948,4.677,2.637,6.364l23.16,23.158c1.757,1.757,4.06,2.636,6.363,2.636   s4.606-0.879,6.364-2.636l24.524-24.524l19.67,19.67c0.002,0.002,0.003,0.004,0.005,0.006s0.004,0.003,0.006,0.005l31.067,31.068   c1.868,8.286,5.996,15.793,12.06,21.857c8.505,8.505,19.813,13.188,31.841,13.188c12.027,0,23.335-4.684,31.839-13.188   c17.556-17.557,17.556-46.123,0-63.68c-6.065-6.064-13.575-10.192-21.862-12.06l-31.062-31.063   c-0.003-0.003-0.005-0.006-0.008-0.009s-0.006-0.005-0.009-0.008l-19.667-19.668l24.525-24.525   c1.688-1.688,2.636-3.978,2.636-6.364s-0.948-4.677-2.637-6.364l-23.16-23.158c-3.514-3.514-9.212-3.514-12.728,0l-22.094,22.094   l-14.125-19.549l101.968-73.681c2.116-1.529,3.465-3.903,3.693-6.505l10.1-114.617c0.234-2.652-0.719-5.271-2.601-7.154   c-1.883-1.883-4.505-2.835-7.154-2.601L323.868,65.069c-2.602,0.229-4.976,1.577-6.505,3.693l-61.364,84.921l-61.363-84.921   c-1.529-2.116-3.903-3.465-6.505-3.693L73.515,54.968c-2.649-0.231-5.271,0.718-7.154,2.601c-1.882,1.883-2.835,4.502-2.601,7.154   l10.1,114.617c0.229,2.602,1.577,4.976,3.693,6.505l101.968,73.683l-14.126,19.547l-22.094-22.094   c-3.515-3.513-9.212-3.515-12.729,0l-23.159,23.158c-1.688,1.688-2.636,3.978-2.636,6.364s0.948,4.676,2.636,6.364l24.524,24.525   l-50.748,50.748c-8.286,1.867-15.794,5.994-21.859,12.059c-8.505,8.505-13.188,19.813-13.188,31.841   c0.001,12.027,4.685,23.335,13.188,31.838c8.505,8.506,19.812,13.189,31.84,13.189c12.027,0,23.335-4.684,31.84-13.189   c6.064-6.065,10.191-13.573,12.06-21.856l50.749-50.749l24.524,24.524c1.758,1.757,4.061,2.636,6.364,2.636   c2.303,0,4.606-0.879,6.364-2.636l23.159-23.158c1.688-1.688,2.636-3.978,2.636-6.364s-0.948-4.676-2.636-6.364l-22.094-22.094   l31.862-23.024l31.863,23.024l-22.094,22.094C264.081,361.599,263.133,363.888,263.133,366.274z M439.94,431.151   c-5.104,5.104-11.892,7.916-19.11,7.916c-7.22,0-14.008-2.812-19.112-7.917c-4.079-4.078-6.702-9.241-7.586-14.931   c-1.323-8.511,1.514-17.219,7.585-23.292c5.102-5.1,11.886-7.909,19.103-7.909c1.398,0,2.807,0.109,4.187,0.324   c0.002,0,0.003,0,0.005,0.001c5.688,0.883,10.853,3.506,14.93,7.584C450.479,403.466,450.479,420.612,439.94,431.151z    M406.161,369.457c-0.511,0.176-1.018,0.363-1.521,0.557c-0.25,0.097-0.501,0.188-0.749,0.289   c-0.602,0.244-1.196,0.505-1.787,0.774c-0.141,0.064-0.284,0.122-0.424,0.188c-0.732,0.344-1.455,0.709-2.169,1.094   c-0.161,0.087-0.318,0.182-0.479,0.271c-0.544,0.301-1.083,0.61-1.615,0.936c-0.237,0.145-0.471,0.298-0.705,0.447   c-0.451,0.287-0.897,0.579-1.339,0.883c-0.249,0.171-0.495,0.346-0.74,0.522c-0.426,0.305-0.845,0.619-1.261,0.94   c-0.237,0.183-0.475,0.365-0.708,0.553c-0.437,0.352-0.864,0.715-1.289,1.084c-0.196,0.17-0.396,0.335-0.59,0.51   c-0.611,0.548-1.211,1.109-1.796,1.694c-0.628,0.628-1.234,1.273-1.821,1.935c-0.188,0.213-0.361,0.437-0.546,0.652   c-0.388,0.455-0.778,0.906-1.147,1.375c-0.217,0.275-0.416,0.563-0.626,0.844c-0.315,0.422-0.638,0.839-0.938,1.271   c-0.218,0.313-0.416,0.636-0.625,0.953c-0.271,0.413-0.551,0.821-0.809,1.242c-0.206,0.337-0.393,0.684-0.589,1.024   c-0.239,0.414-0.485,0.824-0.711,1.246c-0.19,0.356-0.361,0.722-0.543,1.082c-0.209,0.418-0.425,0.831-0.621,1.254   c-0.173,0.374-0.326,0.756-0.489,1.134c-0.181,0.42-0.369,0.838-0.537,1.264c-0.153,0.388-0.287,0.782-0.429,1.173   c-0.138,0.378-0.287,0.751-0.414,1.132l-13.195-13.196l28.424-28.423l13.16,13.16C406.408,369.363,406.286,369.414,406.161,369.457   z M380.645,343.433l-28.424,28.423l-13.311-13.311l28.423-28.424L380.645,343.433z M329.545,82.639l99.822-8.798l-8.796,99.822   l-98.635,71.272l-21.366-29.57l77.616-77.615c3.515-3.515,3.515-9.214,0-12.729c-3.515-3.513-9.212-3.515-12.729,0l-75.566,75.566   l-22.789-31.538L329.545,82.639z M82.633,73.841l99.821,8.798l66.241,91.672c0.003,0.004,0.005,0.009,0.008,0.013l63.914,88.451   c0.005,0.007,0.011,0.013,0.016,0.02l21.08,29.172l-10.114,10.114L146.542,125.021c-3.515-3.513-9.212-3.515-12.729,0   c-3.515,3.515-3.515,9.214,0,12.729l177.056,177.059l-10.115,10.115l-77.7-56.146l-25.695-18.569   c-0.005-0.003-0.01-0.006-0.015-0.01L91.429,173.663L82.633,73.841z M194.11,270.07l14.229,10.281l1.039,0.751L188.4,302.08   l-10.113-10.113L194.11,270.07z M118.626,356.16l28.424,28.424l-13.195,13.195c-0.121-0.364-0.265-0.721-0.396-1.081   c-0.148-0.41-0.289-0.823-0.449-1.229c-0.161-0.409-0.342-0.81-0.516-1.214c-0.169-0.395-0.33-0.793-0.511-1.183   c-0.188-0.406-0.396-0.803-0.597-1.203c-0.188-0.378-0.368-0.76-0.567-1.133c-0.217-0.404-0.454-0.799-0.683-1.196   c-0.206-0.357-0.401-0.721-0.617-1.072c-0.248-0.405-0.518-0.798-0.778-1.196c-0.219-0.332-0.427-0.671-0.654-0.999   c-0.288-0.413-0.598-0.813-0.899-1.218c-0.223-0.298-0.435-0.604-0.665-0.896c-0.353-0.448-0.728-0.88-1.098-1.315   c-0.201-0.235-0.39-0.479-0.596-0.711c-0.586-0.661-1.192-1.306-1.82-1.934c-0.584-0.584-1.183-1.145-1.792-1.692   c-0.199-0.178-0.403-0.348-0.604-0.521c-0.419-0.363-0.841-0.722-1.271-1.067c-0.24-0.194-0.484-0.381-0.729-0.569   c-0.406-0.314-0.816-0.621-1.232-0.92c-0.255-0.183-0.51-0.364-0.768-0.541c-0.43-0.296-0.865-0.58-1.304-0.86   c-0.245-0.156-0.489-0.316-0.738-0.468c-0.514-0.313-1.035-0.612-1.561-0.904c-0.178-0.099-0.352-0.204-0.53-0.301   c-0.708-0.381-1.426-0.743-2.152-1.085c-0.158-0.075-0.321-0.141-0.48-0.213c-0.572-0.262-1.148-0.514-1.732-0.751   c-0.254-0.104-0.512-0.198-0.769-0.296c-0.499-0.192-1-0.377-1.505-0.551c-0.127-0.044-0.249-0.096-0.376-0.138L118.626,356.16z    M91.17,439.067c-7.22,0-14.007-2.812-19.112-7.917c-5.104-5.104-7.916-11.892-7.916-19.11c0-7.22,2.812-14.008,7.917-19.112   c4.078-4.079,9.242-6.702,14.934-7.585c1.38-0.215,2.789-0.324,4.187-0.324c7.219,0,14.003,2.81,19.103,7.908   c1.519,1.519,2.834,3.202,3.934,5.005c2.474,4.059,3.85,8.726,3.964,13.499c0.038,1.59-0.063,3.192-0.312,4.788   c0,0.001,0,0.002,0,0.002c-0.885,5.688-3.507,10.851-7.586,14.93C105.177,436.256,98.389,439.067,91.17,439.067z M159.778,371.855   l-28.424-28.424l13.312-13.312l28.424,28.425L159.778,371.855z M216.707,376.705l-24.518-24.518   c-0.003-0.003-0.005-0.006-0.007-0.008l-41.151-41.152c-0.004-0.004-0.009-0.008-0.013-0.012l-24.513-24.513l10.431-10.431   l45.095,45.096c0.002,0.002,0.003,0.003,0.005,0.005s0.003,0.003,0.005,0.005l45.097,45.097L216.707,376.705z M211.244,324.924   l-10.115-10.115l23.026-23.026l16.477,11.906L211.244,324.924z M329.962,321.174l21.9-21.9c0.003-0.003,0.005-0.006,0.008-0.009   l23.192-23.192l10.432,10.431l-24.503,24.503c-0.008,0.008-0.016,0.014-0.023,0.021l-41.15,41.152   c-0.002,0.002-0.004,0.005-0.007,0.008l-24.518,24.518l-10.432-10.431L329.962,321.174z"/></g></svg>